<?xml version="1.0" encoding="UTF-8" standalone="no"?>
<!-- Created with Inkscape (http://www.inkscape.org/) -->

<svg
   xmlns:dc="http://purl.org/dc/elements/1.1/"
   xmlns:cc="http://creativecommons.org/ns#"
   xmlns:rdf="http://www.w3.org/1999/02/22-rdf-syntax-ns#"
   xmlns:svg="http://www.w3.org/2000/svg"
   xmlns="http://www.w3.org/2000/svg"
   xmlns:sodipodi="http://sodipodi.sourceforge.net/DTD/sodipodi-0.dtd"
   xmlns:inkscape="http://www.inkscape.org/namespaces/inkscape"
   width="5.858408mm"
   height="4.7624998mm"
   viewBox="0 0 5.8584082 4.7624998"
   version="1.1"
   id="svg4924"
   inkscape:version="0.92.1 r15371"
   sodipodi:docname="logo-owl.svg">
  <defs
     id="defs4918">
    <linearGradient
       x1="0"
       y1="0"
       x2="1"
       y2="0"
       gradientUnits="userSpaceOnUse"
       gradientTransform="matrix(85.129379,0,0,-85.129379,84.639404,300.70065)"
       spreadMethod="pad"
       id="linearGradient408">
      <stop
         style="stop-opacity:1;stop-color:#e42122"
         offset="0"
         id="stop404" />
      <stop
         style="stop-opacity:1;stop-color:#e42c29"
         offset="1"
         id="stop406" />
    </linearGradient>
  </defs>
  <sodipodi:namedview
     id="base"
     pagecolor="#ffffff"
     bordercolor="#666666"
     borderopacity="1.0"
     inkscape:pageopacity="0.0"
     inkscape:pageshadow="2"
     inkscape:zoom="3.1950475"
     inkscape:cx="8.0308698"
     inkscape:cy="19.821064"
     inkscape:document-units="mm"
     inkscape:current-layer="layer1"
     showgrid="false"
     fit-margin-top="0"
     fit-margin-left="0"
     fit-margin-right="0"
     fit-margin-bottom="0"
     inkscape:window-width="1920"
     inkscape:window-height="1017"
     inkscape:window-x="-8"
     inkscape:window-y="-8"
     inkscape:window-maximized="1" />
  <metadata
     id="metadata4921">
    <rdf:RDF>
      <cc:Work
         rdf:about="">
        <dc:format>image/svg+xml</dc:format>
        <dc:type
           rdf:resource="http://purl.org/dc/dcmitype/StillImage" />
        <dc:title></dc:title>
      </cc:Work>
    </rdf:RDF>
  </metadata>
  <g
     inkscape:label="Layer 1"
     inkscape:groupmode="layer"
     id="layer1"
     transform="translate(437.71695,-310.49963)">
    <g
       transform="matrix(0.06881728,0,0,-0.06881728,-443.5416,333.57427)"
       id="g392"
       style="fill:#FFFFFF;fill-opacity:1">
      <g
         id="g394"
         style="fill:#FFFFFF;fill-opacity:1">
        <g
           id="g400"
           style="fill:#FFFFFF;fill-opacity:1">
          <g
             id="g402"
             style="fill:#FFFFFF;fill-opacity:1">
            <path
               d="m 129.735,335.303 c -19.958,-0.016 -36.878,-2.072 -40.234,-4.889 v 0 c -3.115,-2.615 -5.063,-14.538 -4.845,-29.668 v 0 c 0.222,-15.457 2.663,-28.061 5.934,-30.652 v 0 c 1.7,-1.345 6.685,-2.465 14.082,-3.172 v 0 c -1.151,2.355 -1.759,4.957 -1.765,7.579 v 0 l 0.001,15.448 c -4.679,4.286 -6.284,11.025 -4.052,16.955 v 0 c -2.996,2.289 -5.12,5.553 -6.004,9.244 v 0 c -0.112,0.565 0.005,1.162 0.324,1.641 v 0 c 3.298,4.948 9.518,6.555 12.924,7.07 v 0 c 1.425,0.237 2.879,0.357 4.324,0.357 v 0 c 2.706,0 5.386,-0.415 7.974,-1.237 v 0 c 0.166,-0.056 0.329,-0.123 0.492,-0.191 v 0 c 2.402,1.117 5.063,1.708 7.712,1.708 v 0 l 0.357,-0.004 0.366,0.003 c 2.651,0 5.315,-0.591 7.718,-1.714 v 0 c 0.169,0.071 0.338,0.138 0.513,0.196 v 0 c 2.58,0.818 5.26,1.232 7.966,1.232 v 0 c 1.441,0 2.892,-0.119 4.307,-0.353 v 0 c 3.418,-0.523 9.643,-2.136 12.934,-7.075 v 0 c 0.324,-0.486 0.439,-1.068 0.32,-1.658 v 0 c -0.88,-3.671 -3.005,-6.931 -6,-9.219 v 0 c 2.232,-5.93 0.629,-12.669 -4.05,-16.955 v 0 -15.449 c -0.006,-2.474 -0.551,-4.945 -1.586,-7.199 v 0 c 8.212,0.892 13.687,2.193 15.461,3.683 v 0 c 3.115,2.614 5.061,14.536 4.845,29.665 v 0 c -0.223,15.459 -2.664,28.064 -5.936,30.654 v 0 c -3.069,2.43 -16.366,4 -33.877,4 v 0 z m -2.798,-14.177 c -1.18,0 -2.355,-0.131 -3.506,-0.387 v 0 c 1.204,-1.232 2.176,-2.65 2.896,-4.226 v 0 c 0.23,-0.503 0.444,-1.016 0.642,-1.536 v 0 c 0.199,0.522 0.414,1.036 0.645,1.542 v 0 c 0.721,1.572 1.692,2.989 2.894,4.219 v 0 c -1.153,0.257 -2.337,0.388 -3.567,0.388 v 0 z m -20.176,-0.582 c -1.955,-0.297 -6.718,-1.317 -9.373,-4.411 v 0 c 0.699,-2.079 1.931,-3.911 3.588,-5.34 v 0 c 2.576,3.466 6.478,5.712 10.786,6.192 v 0 c 0.572,0.065 1.154,0.097 1.728,0.097 v 0 c 3.296,0 6.47,-1.034 9.113,-2.941 v 0 c -0.08,0.188 -0.161,0.373 -0.245,0.558 v 0 c -1.007,2.367 -2.966,4.246 -5.347,5.143 v 0 c -2.063,0.648 -4.207,0.988 -6.37,1.01 v 0 l -0.215,0.001 c -1.223,0 -2.452,-0.104 -3.665,-0.309 m 36.537,0.304 c -2.162,-0.021 -4.304,-0.362 -6.338,-1 v 0 c -2.409,-0.905 -4.369,-2.783 -5.383,-5.161 v 0 c -0.083,-0.184 -0.164,-0.37 -0.244,-0.558 v 0 c 2.644,1.908 5.819,2.944 9.116,2.944 v 0 c 0.576,0 1.157,-0.034 1.729,-0.098 v 0 c 4.31,-0.479 8.211,-2.727 10.786,-6.196 v 0 c 1.668,1.424 2.901,3.259 3.591,5.346 v 0 c -2.644,3.098 -7.421,4.121 -9.39,4.421 v 0 c -1.2,0.201 -2.427,0.304 -3.645,0.304 v 0 z M 129.153,301.43 c 0,-6.221 5.06,-11.282 11.281,-11.282 v 0 c 6.213,0.007 11.274,5.069 11.282,11.282 v 0 c 0,6.22 -5.062,11.281 -11.282,11.281 v 0 c -6.221,0 -11.281,-5.061 -11.281,-11.281 m 4.049,0 c 0,3.06 2.489,5.548 5.549,5.548 v 0 c 1.482,0 2.876,-0.577 3.923,-1.625 v 0 c 1.049,-1.049 1.627,-2.442 1.626,-3.923 v 0 c 0,-3.06 -2.49,-5.549 -5.549,-5.549 v 0 c -3.06,0 -5.549,2.489 -5.549,5.549 m -30.978,0 c 0.007,-6.213 5.068,-11.275 11.283,-11.282 v 0 c 6.221,0 11.28,5.061 11.28,11.282 v 0 c 0,6.22 -5.061,11.281 -11.281,11.281 v 0 c -6.221,0 -11.282,-5.061 -11.282,-11.281 m 7.416,0 c 0,3.06 2.488,5.548 5.548,5.548 v 0 c 3.06,0 5.55,-2.488 5.55,-5.548 v 0 c 0,-3.06 -2.49,-5.549 -5.55,-5.549 v 0 c -3.06,0 -5.548,2.489 -5.548,5.549 m 27.928,0 c 0,-0.653 0.531,-1.184 1.183,-1.184 v 0 c 0.653,0 1.183,0.531 1.183,1.184 v 0 c 0,0.652 -0.53,1.182 -1.183,1.182 v 0 c -0.652,0 -1.183,-0.53 -1.183,-1.182 m -23.562,0 c 0,-0.653 0.53,-1.184 1.182,-1.184 v 0 c 0.652,0 1.183,0.531 1.183,1.184 v 0 c 0,0.652 -0.531,1.182 -1.183,1.182 v 0 c -0.652,0 -1.182,-0.53 -1.182,-1.182 m 9.362,-12.121 c 1.796,-4.259 3.227,-5.67 3.601,-5.876 v 0 c 0.376,0.206 1.806,1.617 3.601,5.876 v 0 c -1.428,1.165 -2.657,2.592 -3.601,4.178 v 0 c -0.943,-1.586 -2.172,-3.013 -3.601,-4.178 m 17.065,0.839 h 0.001 c 0,0 0,0 0,0 v 0 c 0,0 -0.001,0 -0.001,0 m -26.927,0 h 0.001 c 0,0 0,0 0,0 v 0 c 0,0 -0.001,0 -0.001,0 m 28.276,-4.289 c 0.64,-3.185 0.92,-6.44 0.835,-9.675 v 0 c -0.002,-3.245 -0.474,-6.462 -1.403,-9.576 v 0 c 0.981,0.062 1.945,0.132 2.898,0.206 v 0 c 1.642,2.211 2.548,4.933 2.555,7.687 v 0 12.594 c -1.555,-0.678 -3.192,-1.093 -4.885,-1.236 m -34.508,-11.357 c 0.006,-2.893 0.999,-5.724 2.8,-7.998 v 0 c 0.891,-0.055 1.802,-0.101 2.725,-0.144 v 0 c -0.978,3.188 -1.474,6.488 -1.476,9.81 v 0 c -0.086,3.247 0.195,6.504 0.834,9.689 v 0 c -1.692,0.143 -3.329,0.558 -4.883,1.236 v 0 z m 19.695,4.547 c -1.694,0 -4.29,0.84 -7.389,7.977 v 0 c -0.918,-0.39 -1.871,-0.692 -2.846,-0.898 v 0 c -0.822,-3.242 -1.174,-6.58 -1.045,-9.945 v 0 c -0.007,-3.425 0.591,-6.785 1.779,-9.993 v 0 c 2.298,-0.061 4.669,-0.092 7.053,-0.092 v 0 c 4.052,0 8.093,0.088 12.016,0.261 v 0 c 1.148,3.159 1.724,6.463 1.715,9.844 v 0 c 0.128,3.344 -0.224,6.68 -1.047,9.925 v 0 c -0.975,0.207 -1.929,0.508 -2.845,0.898 v 0 c -3.1,-7.137 -5.694,-7.977 -7.391,-7.977"
               style="fill:#FFFFFF;fill-opacity:1;stroke:none"
               id="path410"
               inkscape:connector-curvature="0" />
          </g>
        </g>
      </g>
    </g>
  </g>
</svg>
